<svg width="32" height="32" viewBox="0 0 32 32" fill="none" xmlns="http://www.w3.org/2000/svg">
<rect width="32" height="32" rx="7" fill="#DDE3E9"/>
<path d="M17.3404 23.8486C17.2254 23.977 17.1023 24.0974 16.9712 24.2098C16.9471 24.2285 16.9257 24.2473 16.9016 24.266C16.7839 24.365 17.0247 24.1831 16.8963 24.2687C16.8267 24.3168 16.7571 24.365 16.6822 24.4078C16.6234 24.4426 16.5618 24.4747 16.5003 24.5041C16.4869 24.5095 16.4762 24.5148 16.4628 24.5202C16.3986 24.5496 16.4147 24.5416 16.5137 24.4988C16.4869 24.5015 16.4495 24.5229 16.42 24.5336C16.3531 24.5576 16.2836 24.5764 16.214 24.5924C16.1899 24.5978 16.1632 24.6031 16.1391 24.6085C15.9545 24.6433 16.2461 24.6031 16.1257 24.6112C16.0214 24.6165 15.9143 24.6192 15.81 24.6112C15.7859 24.6085 15.7592 24.6058 15.7351 24.6031C15.9598 24.6165 15.8903 24.6272 15.8394 24.6165C15.7913 24.6058 15.7404 24.5978 15.6923 24.5871C15.6013 24.5657 15.5157 24.5309 15.4274 24.5015C15.3364 24.4694 15.5237 24.5416 15.5157 24.5389C15.4916 24.5336 15.4648 24.5175 15.4434 24.5068C15.3953 24.4827 15.3498 24.4587 15.3016 24.4319C15.2187 24.3837 15.1384 24.3329 15.0581 24.2767C15.0394 24.2633 15.0207 24.25 15.002 24.2339C14.9083 24.1643 15.1384 24.3436 15.0474 24.2687C15.002 24.2312 14.9565 24.1938 14.9137 24.1536C14.7451 24.0038 14.5926 23.8379 14.4508 23.664C14.4321 23.6426 14.416 23.6212 14.3999 23.5998C14.5364 23.7576 14.4508 23.6667 14.4214 23.6292C14.3866 23.5837 14.3545 23.5356 14.3197 23.4901C14.2448 23.3831 14.1725 23.2734 14.103 23.161C13.9558 22.9202 13.822 22.6714 13.6989 22.4172C13.6401 22.2941 13.5812 22.1683 13.5277 22.0453C13.5224 22.0319 13.517 22.0185 13.5116 22.0078C13.4822 21.9409 13.4902 21.957 13.5304 22.0506C13.5277 22.0212 13.5009 21.981 13.4902 21.9516C13.4581 21.8713 13.426 21.7911 13.3939 21.7108C13.2789 21.4058 13.1745 21.0981 13.0809 20.7851C12.8936 20.159 12.7438 19.5195 12.6287 18.8747C12.5993 18.7168 12.5725 18.5563 12.5484 18.3984C12.5351 18.3208 12.5244 18.2432 12.5136 18.1683C12.5056 18.1228 12.5003 18.0747 12.4949 18.0292C12.4708 17.866 12.5136 18.1844 12.4949 18.0185C12.4494 17.6653 12.412 17.3121 12.3825 16.9563C12.3237 16.2312 12.2969 15.5007 12.305 14.773C12.3103 14.0345 12.3504 13.2987 12.4227 12.5656C12.4387 12.4051 12.4575 12.2445 12.4762 12.0867C12.4815 12.0412 12.5083 11.7817 12.4896 11.9823C12.4976 11.8887 12.5163 11.795 12.5297 11.7014C12.5805 11.3696 12.6367 11.0378 12.7036 10.7087C12.832 10.072 12.9926 9.43784 13.1959 8.81978C13.2468 8.66192 13.303 8.50673 13.3591 8.35155C13.3859 8.28198 13.41 8.21509 13.4367 8.14553C13.4635 8.07864 13.5277 7.97696 13.5331 7.90472C13.5223 7.93148 13.509 7.95823 13.4983 7.98767C13.509 7.96091 13.5197 7.93683 13.5304 7.91007C13.5411 7.88332 13.5518 7.85924 13.5652 7.83248C13.5946 7.76292 13.6267 7.69603 13.6588 7.62646C13.723 7.48733 13.7926 7.35087 13.8648 7.21709C13.9906 6.98164 14.127 6.75421 14.2769 6.53482C14.3117 6.4813 14.3491 6.43047 14.3866 6.37695C14.3999 6.35823 14.4133 6.3395 14.4267 6.32077C14.5043 6.21642 14.3224 6.4492 14.4053 6.3502C14.4802 6.25655 14.5551 6.16558 14.6381 6.07729C14.7103 5.99702 14.7879 5.91943 14.8655 5.84719C14.9056 5.80973 14.9458 5.77494 14.9886 5.73749C15.0046 5.72411 15.018 5.71341 15.0341 5.70003C15.1598 5.59836 14.9217 5.7803 15.0127 5.71608C15.1732 5.60103 15.3364 5.50471 15.513 5.41909C15.5852 5.38431 15.3337 5.48598 15.4381 5.4512C15.4622 5.44317 15.4862 5.43247 15.5103 5.42444C15.5505 5.41106 15.5906 5.39769 15.6307 5.38698C15.6709 5.37628 15.711 5.36558 15.7538 5.35755C15.8314 5.3415 15.9973 5.34417 15.7484 5.3522C15.8394 5.34953 15.9304 5.33615 16.024 5.33882C16.0668 5.33882 16.107 5.34417 16.1498 5.34685C16.1658 5.34685 16.1819 5.3522 16.2006 5.3522C15.9652 5.34417 16.0802 5.33615 16.1471 5.34685C16.2301 5.3629 16.3103 5.38431 16.3906 5.40839C16.4361 5.42177 16.4789 5.4405 16.5244 5.45655C16.5993 5.4833 16.3505 5.37628 16.4495 5.42444C16.4762 5.43782 16.5056 5.4512 16.5324 5.46458C16.618 5.50739 16.6983 5.55287 16.7786 5.60371C16.8187 5.62779 16.8561 5.65454 16.8936 5.6813C16.9177 5.69735 16.9391 5.71608 16.9632 5.73214C16.7839 5.60638 16.8776 5.66792 16.9177 5.70003C17.0916 5.84184 17.2521 6.00237 17.3993 6.17093C17.4341 6.21107 17.4689 6.25388 17.5036 6.29669C17.525 6.32344 17.5438 6.3502 17.5652 6.37428C17.4448 6.22712 17.4956 6.28331 17.5224 6.32077C17.6053 6.43314 17.6856 6.54819 17.7632 6.66592C17.9077 6.88799 18.0388 7.1181 18.1592 7.35355C18.2261 7.48465 18.2903 7.61843 18.3518 7.75489C18.3812 7.8191 18.408 7.88064 18.4374 7.94486C18.4963 8.07864 18.3919 7.83248 18.4267 7.92078C18.4455 7.96626 18.4642 8.01442 18.4829 8.05991C18.7264 8.67262 18.9217 9.30406 19.0796 9.94353C19.1625 10.278 19.2348 10.6151 19.299 10.9522C19.3284 11.1128 19.3578 11.2706 19.3819 11.4312C19.398 11.5302 19.414 11.6265 19.4274 11.7255C19.4327 11.7576 19.4381 11.7924 19.4408 11.8245C19.4461 11.8619 19.4836 12.0867 19.4515 11.8967C19.5103 12.2499 19.5371 12.6138 19.5665 12.9723C19.596 13.3201 19.8528 13.6573 20.2354 13.6412C20.5726 13.6252 20.9364 13.3469 20.9043 12.9723C20.7759 11.4606 20.5297 9.94888 20.0588 8.50406C19.6682 7.30539 19.1331 6.09869 18.2796 5.15421C17.6401 4.44517 16.7143 3.90203 15.7297 4.01708C14.6247 4.14818 13.7979 4.90538 13.1799 5.78565C12.4254 6.85856 11.9625 8.15088 11.6361 9.41108C11.2748 10.8104 11.0795 12.2579 11.0046 13.7001C10.9243 15.2653 10.9966 16.8305 11.2133 18.3824C11.4006 19.7416 11.711 21.0981 12.2354 22.3663C12.6715 23.4259 13.2387 24.5282 14.1565 25.2506C14.5418 25.5556 14.9779 25.8125 15.4675 25.9008C16.1525 26.0239 16.8428 25.8928 17.4341 25.5182C17.7498 25.3175 18.0361 25.0687 18.2876 24.7931C18.523 24.5336 18.5632 24.1001 18.2876 23.8459C18.0281 23.6132 17.5919 23.5704 17.3404 23.8486Z" fill="black"/>
<path d="M22.7772 7.19836C22.5953 7.37763 22.4107 7.55154 22.2154 7.71743C22.1271 7.79502 22.0361 7.86726 21.9451 7.94218C21.9184 7.96358 21.8916 7.98499 21.8649 8.00639C21.7899 8.06525 21.9986 7.90472 21.8863 7.99034C21.8301 8.03315 21.7766 8.07328 21.7204 8.11342C21.3137 8.41308 20.8829 8.68064 20.4361 8.9161C20.2087 9.0365 19.9759 9.1462 19.7378 9.25055C19.703 9.2666 19.62 9.29603 19.7806 9.23182C19.7538 9.24252 19.7297 9.25322 19.703 9.26392C19.6388 9.29068 19.5719 9.31744 19.5077 9.34152C19.3899 9.387 19.2722 9.42981 19.1518 9.47262C18.6541 9.64386 18.1458 9.77496 17.6267 9.86861C17.5063 9.89001 17.3859 9.90874 17.2655 9.92747C17.1665 9.94353 17.4421 9.90607 17.2923 9.9248C17.2628 9.92747 17.2361 9.93282 17.2066 9.9355C17.1344 9.94353 17.0622 9.95155 16.9899 9.95958C16.7197 9.98634 16.4494 10.0024 16.1765 10.0077C15.9036 10.0131 15.6307 10.0077 15.3578 9.99169C15.2347 9.98366 15.109 9.97563 14.9859 9.96225C14.9217 9.9569 14.8548 9.94888 14.7906 9.94085C14.7611 9.93817 14.7317 9.93282 14.705 9.93015C14.6755 9.92747 14.6488 9.92212 14.6193 9.91945C14.6488 9.9248 14.6809 9.92747 14.7103 9.93282C14.1886 9.83383 13.6749 9.74821 13.1638 9.59302C12.9203 9.52078 12.6822 9.43784 12.4441 9.34687C12.3852 9.32546 12.3263 9.30138 12.2675 9.2773C12.2354 9.26392 12.2033 9.24787 12.1712 9.23717C12.1845 9.23984 12.3183 9.30138 12.214 9.2559C12.0936 9.20238 11.9732 9.14887 11.8528 9.09001C11.3417 8.84385 10.8494 8.55489 10.3839 8.22847C10.2661 8.14552 10.1564 8.04385 10.0334 7.97161C10.0441 7.97696 10.1591 8.07061 10.0708 8.00104C10.0387 7.97428 10.0066 7.9502 9.9745 7.92345C9.92098 7.88064 9.86747 7.83515 9.81396 7.79234C9.59189 7.60505 9.38051 7.40973 9.17449 7.20639C9.17449 7.52211 9.17449 7.83783 9.17449 8.15355C9.35643 7.97428 9.54105 7.80037 9.73637 7.63448C9.82466 7.55689 9.91563 7.48465 10.0066 7.40973C10.0334 7.38833 10.0601 7.36692 10.0869 7.34552C10.1618 7.28666 9.95309 7.44719 10.0655 7.36157C10.1217 7.31876 10.1752 7.27863 10.2314 7.23849C10.638 6.93883 11.0688 6.67127 11.5156 6.43581C11.7431 6.31541 11.9758 6.20571 12.214 6.10136C12.2488 6.08531 12.3317 6.05588 12.1712 6.12009C12.1979 6.10939 12.222 6.09869 12.2488 6.08799C12.313 6.06123 12.3799 6.03448 12.4441 6.01039C12.5618 5.96491 12.6795 5.9221 12.7999 5.87929C13.2976 5.70805 13.806 5.57695 14.325 5.4833C14.4454 5.4619 14.5658 5.44317 14.6862 5.42444C14.7852 5.40838 14.5096 5.44584 14.6595 5.42711C14.6889 5.42444 14.7157 5.41909 14.7451 5.41641C14.8173 5.40838 14.8896 5.40036 14.9618 5.39233C15.232 5.36558 15.5023 5.34952 15.7752 5.34417C16.0481 5.33882 16.321 5.34417 16.5939 5.36022C16.717 5.36825 16.8428 5.37628 16.9658 5.38966C17.0301 5.39501 17.0969 5.40303 17.1612 5.41106C17.1906 5.41374 17.22 5.41909 17.2468 5.42176C17.2762 5.42444 17.303 5.42979 17.3324 5.43247C17.303 5.42711 17.2709 5.42444 17.2414 5.41909C17.7632 5.51808 18.2769 5.6037 18.7879 5.75889C19.0314 5.83113 19.2695 5.91407 19.5077 6.00504C19.5665 6.02645 19.6254 6.05053 19.6842 6.07461C19.7164 6.08799 19.7485 6.10404 19.7806 6.11474C19.7672 6.11207 19.6334 6.05053 19.7378 6.09601C19.8582 6.14953 19.9786 6.20304 20.099 6.2619C20.61 6.50806 21.1023 6.79702 21.5679 7.12344C21.6856 7.20639 21.7953 7.30806 21.9184 7.3803C21.9077 7.37495 21.7926 7.2813 21.8809 7.35087C21.913 7.37763 21.9451 7.40171 21.9772 7.42846C22.0307 7.47127 22.0843 7.51676 22.1378 7.55957C22.3598 7.74686 22.5712 7.94218 22.7772 8.14552C23.0261 8.39168 23.4782 8.41308 23.7244 8.14552C23.9679 7.88064 23.9893 7.46324 23.7244 7.19836C22.1619 5.64919 20.1337 4.56557 17.9638 4.18028C15.6655 3.77359 13.3056 4.08664 11.1999 5.09266C10.1029 5.61708 9.09423 6.34217 8.23268 7.19836C7.97582 7.45254 7.97582 7.89134 8.23268 8.14552C9.79523 9.69469 11.8233 10.7783 13.9932 11.1636C16.2916 11.5703 18.6515 11.2572 20.7572 10.2512C21.8542 9.7268 22.8629 9.00171 23.7244 8.14552C23.9732 7.89937 23.9893 7.44452 23.7244 7.19836C23.4542 6.95221 23.0421 6.93348 22.7772 7.19836Z" fill="black"/>
<path d="M9.17719 22.7571C9.37518 22.5617 9.57853 22.3744 9.7899 22.1925C9.88354 22.1122 9.97987 22.0346 10.0762 21.957C10.1966 21.8607 9.98789 22.0213 10.0682 21.9624C10.0922 21.9437 10.1163 21.9249 10.1431 21.9062C10.2046 21.8607 10.2662 21.8152 10.3304 21.7698C10.7718 21.454 11.2374 21.1758 11.7217 20.9323C11.8367 20.8734 11.9545 20.8199 12.0722 20.7664C12.1284 20.7423 12.1846 20.7182 12.2407 20.6915C12.3826 20.63 12.1364 20.7343 12.23 20.6968C12.2648 20.6835 12.2996 20.6674 12.3371 20.654C12.5939 20.5524 12.8561 20.4587 13.121 20.3784C13.3806 20.2982 13.6428 20.2286 13.9076 20.1697C14.0387 20.1403 14.1672 20.1136 14.2983 20.0895C14.4321 20.0654 14.5819 20.0226 14.7184 20.0226C14.5632 20.0253 14.6381 20.0333 14.6809 20.0279C14.7291 20.0226 14.7745 20.0172 14.8227 20.0119C14.903 20.0039 14.9806 19.9958 15.0608 19.9878C15.2214 19.9744 15.3792 19.9637 15.5398 19.9557C15.8769 19.9423 16.2113 19.945 16.5485 19.9611C16.899 19.9798 17.2334 19.64 17.2174 19.2922C17.2013 18.9149 16.923 18.642 16.5485 18.6233C14.1699 18.5002 11.7511 19.1637 9.7899 20.5203C9.23605 20.9029 8.71163 21.3336 8.2327 21.8072C7.98387 22.0534 7.96781 22.5082 8.2327 22.7544C8.50026 23.0032 8.9123 23.0193 9.17719 22.7571Z" fill="black"/>
<path d="M26.8281 13.3309C26.5847 11.6479 25.9238 10.0105 24.9311 8.62985C23.9438 7.25459 22.6596 6.10141 21.1666 5.3014C19.6388 4.48534 17.9318 4.03852 16.2007 4.00106C14.4588 3.9636 12.7277 4.35424 11.1625 5.11143C9.69895 5.81779 8.38256 6.87733 7.38189 8.15627C6.33573 9.49406 5.57586 11.0459 5.23606 12.7155C4.88288 14.4412 4.93104 16.2473 5.40729 17.9436C5.86482 19.573 6.70496 21.0794 7.83406 22.3369C8.96584 23.5971 10.3866 24.5604 11.9545 25.1891C13.5812 25.8447 15.398 26.0855 17.1425 25.8901C17.6455 25.8339 18.1458 25.751 18.6355 25.6306C18.9753 25.5477 19.2107 25.1436 19.1037 24.8065C18.9886 24.4533 18.6462 24.25 18.2796 24.3383C18.0549 24.3918 17.8301 24.44 17.6054 24.4801C17.4983 24.4988 17.394 24.5149 17.287 24.5309C17.2629 24.5336 17.1559 24.5523 17.2522 24.5363C17.3431 24.5229 17.2602 24.5363 17.2415 24.5363C17.1746 24.5443 17.1077 24.5523 17.0435 24.5577C16.5859 24.6032 16.1257 24.6219 15.6655 24.6058C15.4595 24.6005 15.2535 24.5871 15.0475 24.5684C14.9538 24.5604 14.8575 24.5497 14.7639 24.539C14.7184 24.5336 14.5498 24.5069 14.7478 24.539C14.697 24.5309 14.6461 24.5256 14.598 24.5176C14.1993 24.456 13.806 24.3731 13.418 24.266C13.0354 24.1617 12.6608 24.0333 12.2916 23.8861C12.2488 23.8701 12.1016 23.8005 12.2756 23.8808C12.2381 23.862 12.198 23.8487 12.1605 23.8299C12.0642 23.7871 11.9679 23.7443 11.8742 23.6988C11.703 23.6186 11.5371 23.5303 11.3712 23.442C11.0287 23.2547 10.6996 23.0486 10.3812 22.8239C10.301 22.7677 10.2234 22.7115 10.1458 22.6527C10.1137 22.6286 10.0789 22.6018 10.0468 22.5777C10.0575 22.5858 10.1725 22.6767 10.0842 22.6045C10.0628 22.5884 10.0414 22.5697 10.02 22.5537C9.86752 22.4333 9.72036 22.3075 9.57588 22.1764C9.28691 21.9195 9.014 21.644 8.75714 21.355C8.62872 21.2105 8.50296 21.0634 8.38524 20.9108C8.35848 20.8787 8.3344 20.8466 8.30764 20.8118C8.31567 20.8226 8.40397 20.9376 8.33708 20.8493C8.3237 20.8333 8.31299 20.8172 8.29962 20.7985C8.23808 20.7155 8.17654 20.6326 8.11768 20.547C7.89828 20.2339 7.69761 19.9102 7.51299 19.5757C7.41934 19.4045 7.33105 19.2306 7.24811 19.0567C7.20797 18.9737 7.17051 18.8934 7.13306 18.8105C7.12503 18.7918 7.05814 18.6339 7.10095 18.7356C7.13841 18.8266 7.10898 18.757 7.10095 18.7383C7.08757 18.7062 7.07419 18.674 7.06081 18.6419C6.7665 17.9115 6.5578 17.1463 6.4374 16.3677C6.43472 16.3463 6.41064 16.1697 6.42402 16.2847C6.4374 16.3944 6.41867 16.2339 6.41332 16.2018C6.40262 16.1001 6.39191 15.9984 6.38121 15.8968C6.36248 15.6908 6.35178 15.4874 6.34375 15.2814C6.33038 14.8693 6.34375 14.4546 6.38121 14.0426C6.38924 13.9489 6.39994 13.8553 6.41064 13.759C6.41599 13.7081 6.42402 13.6573 6.42937 13.6091C6.42937 13.6065 6.40797 13.7563 6.42135 13.6787C6.4267 13.6439 6.43205 13.6065 6.4374 13.5717C6.46683 13.3737 6.50429 13.1757 6.5471 12.9777C6.63004 12.5951 6.73172 12.2205 6.85747 11.8486C6.91901 11.6613 6.98857 11.4767 7.06081 11.2947C7.07954 11.2493 7.10362 11.2038 7.117 11.1583C7.117 11.1556 7.06081 11.2894 7.09025 11.2225C7.10095 11.1957 7.11165 11.1717 7.12503 11.1449C7.16516 11.0566 7.2053 10.9656 7.24811 10.8773C7.41399 10.5268 7.60129 10.1844 7.80731 9.85527C7.90898 9.69206 8.016 9.52885 8.12838 9.37099C8.17921 9.29875 8.23273 9.22383 8.28624 9.15159C8.30229 9.13018 8.40129 8.99908 8.3344 9.08737C8.27019 9.17032 8.36651 9.04724 8.38524 9.02583C8.62604 8.72349 8.8829 8.43453 9.15581 8.16162C9.42872 7.88871 9.71501 7.62917 10.0174 7.38837C10.0388 7.37231 10.1672 7.27064 10.0789 7.33753C9.99595 7.40175 10.1056 7.31613 10.1271 7.30275C10.21 7.24121 10.2929 7.17967 10.3786 7.12081C10.5364 7.00843 10.697 6.90141 10.8628 6.79974C11.1919 6.59372 11.5344 6.40642 11.8849 6.23786C11.9679 6.19773 12.0481 6.16027 12.1311 6.12281C12.1766 6.10408 12.222 6.08535 12.2649 6.06395C12.2675 6.06127 12.1338 6.11746 12.2006 6.0907C12.2274 6.08 12.2515 6.0693 12.2782 6.0586C12.4602 5.98368 12.6448 5.91679 12.8294 5.85257C13.204 5.72415 13.5866 5.61712 13.9746 5.53418C14.1699 5.49137 14.3679 5.45391 14.5659 5.42448C14.6167 5.41645 14.6675 5.4111 14.7157 5.40307C14.7184 5.40307 14.5685 5.4218 14.6461 5.41378C14.6675 5.4111 14.6889 5.40842 14.7104 5.40575C14.8174 5.39237 14.9271 5.38167 15.0368 5.37097C15.4408 5.33351 15.8448 5.32013 16.2515 5.33083C16.4575 5.33618 16.6635 5.34689 16.8669 5.36562C16.9686 5.37364 17.0702 5.38434 17.1719 5.39505C17.2147 5.4004 17.2575 5.40575 17.3003 5.4111C17.4181 5.42448 17.2656 5.40575 17.2522 5.40575C17.2816 5.4111 17.3084 5.41378 17.3378 5.41913C18.1244 5.53685 18.895 5.74555 19.6335 6.03987C19.6736 6.05592 19.711 6.07197 19.7512 6.08803C19.7886 6.10408 19.8609 6.14421 19.7084 6.0693C19.7271 6.07732 19.7458 6.08535 19.7672 6.09338C19.8636 6.13619 19.9572 6.179 20.0535 6.22448C20.2221 6.30475 20.3906 6.39037 20.5565 6.47866C20.8963 6.66328 21.2281 6.86663 21.5465 7.0887C21.6214 7.13954 21.6937 7.19305 21.7659 7.24656C21.806 7.27599 21.8435 7.30542 21.881 7.33218C21.897 7.34556 21.9131 7.35626 21.9291 7.36964C21.7846 7.26261 21.8756 7.32951 21.9077 7.35359C22.0602 7.47399 22.2074 7.59706 22.3519 7.72549C22.6382 7.97968 22.9137 8.24991 23.1706 8.5362C23.3044 8.68336 23.4328 8.83587 23.5559 8.99105C23.588 9.02851 23.6174 9.06864 23.6495 9.10878C23.695 9.16764 23.6094 9.05527 23.6094 9.05794C23.6254 9.08202 23.6442 9.10343 23.6602 9.12483C23.7191 9.2051 23.778 9.28537 23.8368 9.36564C24.0669 9.69206 24.2783 10.0319 24.4683 10.3824C24.5646 10.559 24.6556 10.7382 24.7412 10.9175C24.7813 11.0031 24.8188 11.086 24.8562 11.1717C24.8669 11.1984 24.8803 11.2252 24.891 11.2519C24.9204 11.3215 24.8643 11.1904 24.8669 11.1904C24.8857 11.2439 24.9097 11.2974 24.9311 11.3509C25.081 11.7282 25.2067 12.1162 25.3111 12.5095C25.4127 12.8948 25.4903 13.2854 25.5492 13.6787C25.5706 13.8339 25.7285 14.0024 25.8569 14.0774C26.0014 14.1603 26.2128 14.1978 26.3733 14.1443C26.5338 14.0907 26.6917 13.9917 26.772 13.8366C26.8495 13.676 26.8549 13.5182 26.8281 13.3309Z" fill="black"/>
<path d="M5.66946 15.6453C6.50692 15.6453 7.34438 15.6453 8.18452 15.6453C8.94706 15.6453 9.70693 15.6453 10.4695 15.6453C11.315 15.6453 12.1605 15.6453 13.0059 15.6453C13.9638 15.6453 14.9217 15.6453 15.8795 15.6453C16.6555 15.6453 17.4341 15.6453 18.21 15.6453C18.2448 15.6453 18.2822 15.6453 18.317 15.6453C18.6675 15.6453 19.002 15.3376 18.9859 14.9764C18.9699 14.6152 18.6916 14.3075 18.317 14.3075C17.5357 14.3075 16.7518 14.3075 15.9705 14.3075C15.133 14.3075 14.2983 14.3075 13.4608 14.3075C12.4949 14.3075 11.529 14.3075 10.5605 14.3075C9.91831 14.3075 9.27616 14.3075 8.63402 14.3075C7.66545 14.3075 6.69421 14.3075 5.72564 14.3075C5.70691 14.3075 5.68818 14.3075 5.66946 14.3075C5.31895 14.3075 4.9845 14.6152 5.00056 14.9764C5.01661 15.3403 5.2922 15.6453 5.66946 15.6453Z" fill="black"/>
<path d="M26.6622 19.4821C26.6622 19.6426 26.6515 19.8032 26.6354 19.9637C26.6328 19.9851 26.6301 20.0092 26.6274 20.0306C26.6194 20.1055 26.6408 19.9209 26.6408 19.9369C26.6408 19.9744 26.6301 20.0172 26.6221 20.052C26.6087 20.1349 26.5926 20.2179 26.5739 20.3008C26.5017 20.6326 26.4 20.9564 26.2769 21.2721C26.2609 21.3095 26.2475 21.347 26.2314 21.3844C26.2261 21.4005 26.2181 21.4166 26.2127 21.4326C26.1833 21.5102 26.2742 21.2935 26.2395 21.3684C26.2047 21.4487 26.1672 21.5289 26.1324 21.6092C26.0602 21.7644 25.9826 21.9169 25.9023 22.0667C25.7418 22.3664 25.5652 22.658 25.3806 22.9416C25.196 23.2199 25.0033 23.4928 24.8 23.7604C24.7893 23.7738 24.7786 23.7871 24.7706 23.8005C24.7224 23.8647 24.8642 23.6801 24.816 23.7416C24.792 23.7711 24.7706 23.8005 24.7465 23.8299C24.6983 23.8915 24.6475 23.9557 24.5966 24.0172C24.503 24.1323 24.4067 24.2473 24.3104 24.3597C23.9946 24.7289 23.6655 25.0848 23.3231 25.4246C23.1625 25.5851 22.9993 25.743 22.8307 25.8928C23.1465 25.8928 23.4622 25.8928 23.7779 25.8928C23.0876 25.2855 22.4642 24.5871 21.8943 23.8674C21.8649 23.8299 21.8327 23.7925 21.806 23.755C21.9077 23.8995 21.8113 23.7631 21.7926 23.7363C21.7337 23.6587 21.6749 23.5784 21.616 23.4982C21.4876 23.3243 21.3645 23.1477 21.2468 22.9657C21.0247 22.6286 20.816 22.2808 20.6314 21.9222C20.5404 21.743 20.4548 21.5637 20.3745 21.3791C20.305 21.2239 20.4254 21.5129 20.3638 21.355C20.3451 21.3095 20.3264 21.264 20.3103 21.2159C20.2755 21.1249 20.2408 21.0313 20.2113 20.9376C20.1498 20.753 20.0963 20.5657 20.0508 20.3757C20.0294 20.2821 20.0107 20.1885 19.9919 20.0921C19.9839 20.052 19.9652 19.9931 19.9679 19.9503C19.9812 20.0493 19.9812 20.0627 19.9732 19.9851C19.9705 19.953 19.9652 19.9209 19.9625 19.8915C19.9464 19.7122 19.9384 19.5329 19.9438 19.3563C19.9464 19.2895 19.9491 19.2226 19.9545 19.1583C19.9572 19.1182 19.9625 19.0808 19.9652 19.0406C19.9866 18.8507 19.9464 19.1423 19.9679 19.0246C19.9946 18.8721 20.024 18.7196 20.0668 18.5697C20.0883 18.4948 20.1097 18.4226 20.1364 18.3503C20.1498 18.3129 20.1605 18.2781 20.1739 18.2433C20.1926 18.1951 20.2755 18.0399 20.1766 18.2272C20.3184 17.957 20.4441 17.6921 20.6234 17.4433C20.6555 17.4005 20.7411 17.3256 20.61 17.4593C20.6368 17.4326 20.6582 17.4005 20.6796 17.371C20.7277 17.3149 20.7759 17.2587 20.8294 17.2025C20.9311 17.0928 21.0408 16.9884 21.1531 16.8921C21.1826 16.868 21.212 16.844 21.2388 16.8199C21.3458 16.7316 21.1103 16.9135 21.2227 16.8333C21.2842 16.7878 21.3431 16.745 21.4073 16.7021C21.5438 16.6112 21.6856 16.5282 21.8301 16.456C21.8889 16.4266 21.9879 16.4025 22.0361 16.3597C22.012 16.3704 21.9853 16.3811 21.9612 16.3918C21.9906 16.3811 22.0174 16.3677 22.0468 16.357C22.0896 16.3409 22.1324 16.3249 22.1779 16.3088C22.3545 16.2473 22.5364 16.2018 22.7184 16.1644C22.7639 16.1563 22.812 16.1483 22.8575 16.1403C23.0207 16.1108 22.7023 16.1537 22.8682 16.1403C22.9645 16.1322 23.0608 16.1242 23.1572 16.1189C23.3578 16.1108 23.5558 16.1242 23.7565 16.1403C23.9144 16.1537 23.6013 16.1135 23.7565 16.1403C23.7993 16.1483 23.8448 16.1537 23.8876 16.1644C23.9598 16.1777 24.0321 16.1938 24.1043 16.2125C24.1498 16.2232 24.6448 16.3838 24.6421 16.3891C24.6154 16.3784 24.5886 16.3677 24.5619 16.3543C24.5886 16.365 24.6154 16.3784 24.6394 16.3891C24.693 16.4132 24.7438 16.4373 24.7946 16.464C24.8829 16.5095 24.9712 16.5577 25.0568 16.6112C25.1425 16.662 25.2254 16.7182 25.3057 16.7771C25.3137 16.7824 25.4047 16.8547 25.4073 16.852C25.3271 16.7904 25.3164 16.7824 25.3726 16.8279C25.3833 16.8359 25.394 16.8466 25.4047 16.8547C25.5492 16.9751 25.6856 17.1062 25.8114 17.2453C25.8702 17.3095 25.9264 17.4058 25.9933 17.4593C25.9746 17.4353 25.9558 17.4112 25.9371 17.3871C25.9532 17.4085 25.9692 17.4299 25.9853 17.4513C26.0174 17.4941 26.0468 17.5396 26.0789 17.5851C26.1752 17.7323 26.2635 17.8848 26.3411 18.0426C26.3599 18.0801 26.3759 18.1149 26.3946 18.1523C26.4053 18.1764 26.416 18.2032 26.4267 18.2272C26.3866 18.1309 26.3786 18.1149 26.4053 18.1818C26.4375 18.2727 26.4722 18.361 26.5017 18.452C26.5605 18.6393 26.6007 18.8266 26.6354 19.0192C26.6622 19.1691 26.6194 18.856 26.6354 19.0085C26.6408 19.0647 26.6461 19.1209 26.6515 19.1771C26.6569 19.2814 26.6595 19.3831 26.6622 19.4821C26.6649 19.8326 26.9672 20.167 27.3311 20.151C27.6923 20.1349 28.0027 19.8567 28 19.4821C27.992 17.8527 27.1358 16.3222 25.7471 15.4687C24.2836 14.567 22.3598 14.5617 20.8883 15.4473C19.5799 16.2339 18.7505 17.6092 18.6167 19.1236C18.5418 19.961 18.721 20.8226 19.0234 21.6012C19.3525 22.4547 19.7993 23.2493 20.3264 23.9958C21.0408 25.0072 21.8649 25.9651 22.7826 26.7999C22.7986 26.8132 22.8147 26.8293 22.8281 26.8427C23.1117 27.0942 23.4889 27.0942 23.7752 26.8427C24.2702 26.4065 24.7277 25.9169 25.1585 25.4193C26.0977 24.341 26.9271 23.1637 27.4836 21.8393C27.7967 21.0955 27.9973 20.2955 28 19.4821C28.0027 19.1316 27.6923 18.7971 27.3311 18.8132C26.9672 18.8292 26.6622 19.1075 26.6622 19.4821Z" fill="black"/>
<path d="M23.6361 19.4821C23.6361 19.5061 23.6334 19.5302 23.6334 19.5543C23.6334 19.6239 23.5933 19.5891 23.6441 19.4847C23.6281 19.5168 23.6227 19.5704 23.6147 19.6051C23.5799 19.7389 23.6789 19.4954 23.6227 19.5918C23.5987 19.6319 23.5773 19.672 23.5532 19.7122C23.5023 19.8005 23.5853 19.664 23.596 19.6587C23.5826 19.6667 23.5639 19.6961 23.5505 19.7095C23.5291 19.7336 23.4221 19.8192 23.5157 19.7496C23.6147 19.6774 23.4943 19.7603 23.4702 19.7764C23.4515 19.7871 23.4301 19.7978 23.4087 19.8085C23.315 19.862 23.5318 19.7764 23.4569 19.7898C23.4194 19.7951 23.3766 19.8112 23.3391 19.8245C23.2321 19.8567 23.4087 19.8192 23.4114 19.8192C23.3953 19.8245 23.3525 19.8245 23.3391 19.8245C23.2963 19.8272 23.2535 19.8219 23.2107 19.8219C23.1358 19.8192 23.3124 19.8299 23.299 19.8326C23.2829 19.8379 23.2321 19.8192 23.2134 19.8138C23.192 19.8085 23.1679 19.7978 23.1465 19.7924C23.0849 19.7817 23.2241 19.8272 23.2241 19.8272C23.1893 19.8005 23.1385 19.7844 23.101 19.7603C23.0849 19.7496 23.0609 19.7282 23.0448 19.7202C23.0475 19.7202 23.1518 19.8165 23.1144 19.771C23.093 19.7443 23.0368 19.6774 23.0047 19.6613C23.0047 19.6613 23.0876 19.7844 23.0555 19.7282C23.0448 19.7095 23.0288 19.6908 23.0181 19.6694C22.9967 19.6346 22.9833 19.5944 22.9619 19.5623C23.0448 19.6801 23.0047 19.6827 22.9913 19.6239C22.9859 19.5998 22.9779 19.5784 22.9726 19.557C22.9672 19.5409 22.9672 19.5195 22.9619 19.5061C22.9324 19.4339 22.9699 19.672 22.9699 19.5597C22.9699 19.5168 22.9672 19.474 22.9699 19.4312C22.9779 19.276 22.9351 19.5516 22.9672 19.4473C22.9779 19.4125 23.0074 19.3456 23.0074 19.3108C23.0074 19.3215 22.9298 19.4633 22.9806 19.375C22.9913 19.3563 23.002 19.3349 23.0127 19.3135C23.0234 19.2948 23.0368 19.276 23.0502 19.2546C23.0849 19.1985 23.101 19.2439 23.0074 19.3082C23.0368 19.2894 23.0662 19.2466 23.0903 19.2199C23.1866 19.1209 22.9833 19.2841 23.0769 19.2279C23.1197 19.2011 23.1679 19.177 23.2107 19.1503C23.2642 19.1155 23.1304 19.1824 23.1304 19.1824C23.1465 19.1824 23.1786 19.1663 23.1973 19.161C23.2294 19.1503 23.3686 19.1289 23.2482 19.1423C23.1197 19.1583 23.2749 19.1423 23.3043 19.1423C23.3284 19.1423 23.3525 19.1449 23.3766 19.1449C23.4916 19.1476 23.2482 19.1128 23.3231 19.1369C23.3579 19.1476 23.4381 19.1797 23.4756 19.1797C23.4756 19.1797 23.3445 19.1128 23.3953 19.1476C23.4194 19.1637 23.4462 19.1744 23.4729 19.1877C23.4916 19.1985 23.5104 19.2118 23.5318 19.2252C23.6094 19.2707 23.489 19.1985 23.4783 19.1824C23.497 19.2145 23.5612 19.2653 23.588 19.2921C23.6468 19.3456 23.5104 19.1663 23.5478 19.2386C23.5612 19.2627 23.5799 19.2867 23.596 19.3108C23.604 19.3269 23.612 19.3403 23.6201 19.3563C23.6789 19.4526 23.604 19.3456 23.6013 19.3082C23.6013 19.3483 23.6281 19.4045 23.6415 19.4446C23.6736 19.549 23.6361 19.375 23.6361 19.3724C23.6441 19.4018 23.6361 19.4526 23.6361 19.4821C23.6415 19.8326 23.9385 20.167 24.305 20.151C24.6609 20.1349 24.9819 19.8566 24.9739 19.4821C24.9605 18.757 24.5084 18.1362 23.8261 17.8928C23.2107 17.6734 22.4455 17.8767 22.0308 18.3877C21.5839 18.9389 21.4823 19.7015 21.8488 20.3276C22.2181 20.959 22.9458 21.2506 23.6548 21.1169C24.4254 20.9697 24.9579 20.2419 24.9712 19.4821C24.9766 19.1316 24.6582 18.7971 24.3023 18.8132C23.9385 18.8292 23.6441 19.1075 23.6361 19.4821Z" fill="black"/>
</svg>
